<?xml version="1.0" encoding="utf-8"?> <!-- Generator: IcoMoon.io --> <!DOCTYPE svg PUBLIC "-//W3C//DTD SVG 1.1//EN" "http://www.w3.org/Graphics/SVG/1.1/DTD/svg11.dtd"> <svg xmlns:xlink="http://www.w3.org/1999/xlink" xmlns="http://www.w3.org/2000/svg" width="512" height="512" viewBox="0 0 512 512" data-tags="cloud, weather" style="margin-left: 0px; margin-top: 0px;"><g><line stroke="#B35047" y2="512" y1="0" x2="32" x1="32"></line><line stroke="#B35047" y2="512" y1="0" x2="64" x1="64"></line><line stroke="#B35047" y2="512" y1="0" x2="96" x1="96"></line><line stroke="#B35047" y2="512" y1="0" x2="128" x1="128"></line><line stroke="#B35047" y2="512" y1="0" x2="160" x1="160"></line><line stroke="#B35047" y2="512" y1="0" x2="192" x1="192"></line><line stroke="#B35047" y2="512" y1="0" x2="224" x1="224"></line><line stroke="#B35047" y2="512" y1="0" x2="256" x1="256"></line><line stroke="#B35047" y2="512" y1="0" x2="288" x1="288"></line><line stroke="#B35047" y2="512" y1="0" x2="320" x1="320"></line><line stroke="#B35047" y2="512" y1="0" x2="352" x1="352"></line><line stroke="#B35047" y2="512" y1="0" x2="384" x1="384"></line><line stroke="#B35047" y2="512" y1="0" x2="416" x1="416"></line><line stroke="#B35047" y2="512" y1="0" x2="448" x1="448"></line><line stroke="#B35047" y2="512" y1="0" x2="480" x1="480"></line><line stroke="#B35047" y2="32" y1="32" x2="512" x1="0"></line><line stroke="#B35047" y2="64" y1="64" x2="512" x1="0"></line><line stroke="#B35047" y2="96" y1="96" x2="512" x1="0"></line><line stroke="#B35047" y2="128" y1="128" x2="512" x1="0"></line><line stroke="#B35047" y2="160" y1="160" x2="512" x1="0"></line><line stroke="#B35047" y2="192" y1="192" x2="512" x1="0"></line><line stroke="#B35047" y2="224" y1="224" x2="512" x1="0"></line><line stroke="#B35047" y2="256" y1="256" x2="512" x1="0"></line><line stroke="#B35047" y2="288" y1="288" x2="512" x1="0"></line><line stroke="#B35047" y2="320" y1="320" x2="512" x1="0"></line><line stroke="#B35047" y2="352" y1="352" x2="512" x1="0"></line><line stroke="#B35047" y2="384" y1="384" x2="512" x1="0"></line><line stroke="#B35047" y2="416" y1="416" x2="512" x1="0"></line><line stroke="#B35047" y2="448" y1="448" x2="512" x1="0"></line><line stroke="#B35047" y2="480" y1="480" x2="512" x1="0"></line><rect stroke="#B35047" fill="none" height="512" width="512" y="0" x="0"></rect></g><path d="M 512.00,328.771c0.00-41.045-28.339-75.45-66.498-84.74C 443.881,179.681, 391.273,128.00, 326.571,128.00 c-37.896,0.00-71.633,17.747-93.427,45.366c-12.221-15.799-31.345-25.98-52.854-25.98c-36.905,0.00-66.821,29.937-66.821,66.861 c0.00,3.218, 0.24,6.38, 0.682,9.477c-5.611-1.012-11.383-1.569-17.285-1.569C 43.367,222.154,0.00,265.548,0.00,319.076 C0.00,372.607, 43.367,416.00, 96.865,416.00l 328.131,0.00 l0.00-0.006 C 473.065,415.902, 512.00,376.888, 512.00,328.771z" ></path></svg>