<?xml version="1.0" encoding="UTF-8" standalone="no"?>
<!-- Created with Inkscape (http://www.inkscape.org/) -->

<svg
   xmlns:osb="http://www.openswatchbook.org/uri/2009/osb"
   xmlns:dc="http://purl.org/dc/elements/1.1/"
   xmlns:cc="http://creativecommons.org/ns#"
   xmlns:rdf="http://www.w3.org/1999/02/22-rdf-syntax-ns#"
   xmlns:svg="http://www.w3.org/2000/svg"
   xmlns="http://www.w3.org/2000/svg"
   xmlns:xlink="http://www.w3.org/1999/xlink"
   xmlns:sodipodi="http://sodipodi.sourceforge.net/DTD/sodipodi-0.dtd"
   xmlns:inkscape="http://www.inkscape.org/namespaces/inkscape"
   id="svg3954"
   version="1.1"
   inkscape:version="0.48.4 r9939"
   width="64"
   height="64"
   xml:space="preserve"
   sodipodi:docname="rondo.svg"
   inkscape:export-filename="E:\workspaces\rondo\Rondo\mobile\resources\icons\sized\rondo.png"
   inkscape:export-xdpi="22.5"
   inkscape:export-ydpi="22.5"><metadata
     id="metadata3960"><rdf:RDF><cc:Work
         rdf:about=""><dc:format>image/svg+xml</dc:format><dc:type
           rdf:resource="http://purl.org/dc/dcmitype/StillImage" /><dc:title></dc:title></cc:Work></rdf:RDF></metadata><defs
     id="defs3958"><linearGradient
       inkscape:collect="always"
       id="linearGradient7864"><stop
         style="stop-color:#ffffff;stop-opacity:1;"
         offset="0"
         id="stop7866" /><stop
         style="stop-color:#ffffff;stop-opacity:0;"
         offset="1"
         id="stop7868" /></linearGradient><linearGradient
       id="linearGradient7846"
       osb:paint="solid"><stop
         style="stop-color:#000000;stop-opacity:1;"
         offset="0"
         id="stop7848" /></linearGradient><clipPath
       clipPathUnits="userSpaceOnUse"
       id="clipPath3968"><path
         d="M 0,512 512,512 512,0 0,0 0,512 z"
         id="path3970"
         inkscape:connector-curvature="0" /></clipPath><clipPath
       clipPathUnits="userSpaceOnUse"
       id="clipPath3978"><path
         d="m 26.6665,275.5 458.6675,0 0,-258 -458.6675,0 0,258 z"
         id="path3980"
         inkscape:connector-curvature="0" /></clipPath><clipPath
       clipPathUnits="userSpaceOnUse"
       id="clipPath3982"><path
         d="m 26.6665,275.5 458.6675,0 0,-258 -458.6675,0 0,258 z"
         id="path3984"
         inkscape:connector-curvature="0" /></clipPath><radialGradient
       fx="0"
       fy="0"
       cx="0"
       cy="0"
       r="1"
       gradientUnits="userSpaceOnUse"
       gradientTransform="matrix(238.31491,0,0,-238.31491,108,18)"
       spreadMethod="pad"
       id="radialGradient3990"><stop
         style="stop-opacity:1;stop-color:#ffffff"
         offset="0"
         id="stop3992" /><stop
         style="stop-opacity:1;stop-color:#c6c8ca"
         offset="0.00561798"
         id="stop3994" /><stop
         style="stop-opacity:1;stop-color:#231f20"
         offset="1"
         id="stop3996" /></radialGradient><mask
       maskUnits="userSpaceOnUse"
       x="0"
       y="0"
       width="1"
       height="1"
       id="mask3998"><g
         id="g4000"><g
           clip-path="url(#clipPath3978)"
           id="g4002"><path
             d="m 26.667,275.5 458.667,0 0,-258 -458.667,0 0,258 z"
             style="fill:#000000;fill-opacity:1;fill-rule:nonzero;stroke:none"
             id="path4004"
             inkscape:connector-curvature="0" /><g
             id="g4006"><g
               id="g4008" /><g
               id="g4010"><g
                 clip-path="url(#clipPath3982)"
                 id="g4012"><g
                   id="g4014"><g
                     id="g4016"><g
                       id="g4018"><g
                         id="g4020"><path
                           d="m 239.883,240.038 c -1.507,-1.681 -2.973,-3.423 -4.358,-5.179 -11.442,14.791 -28.7,23.275 -47.349,23.275 -2.848,0 -5.712,-0.202 -8.511,-0.601 -15.787,-2.249 -29.779,-10.553 -39.399,-23.383 -7.818,-10.424 -11.95,-22.843 -11.95,-35.913 0,-2.794 0.205,-5.65 0.611,-8.49 -5.165,0.933 -10.375,1.405 -15.485,1.405 -10.912,0 -21.552,-2.001 -31.625,-5.946 -10.879,-4.263 -20.651,-10.588 -29.044,-18.8 -8.641,-8.456 -15.307,-18.4 -19.814,-29.556 -4.175,-10.335 -6.292,-21.278 -6.292,-32.523 0,-5.575 0.531,-11.152 1.579,-16.577 C 31.533,70.738 39.779,55.236 52.093,42.919 61.439,33.57 72.955,26.383 85.396,22.135 94.4,19.06 103.836,17.5 113.441,17.5 l 293.952,0.005 c 17.884,0.034 34.701,5.953 48.631,17.117 12.776,10.238 21.882,23.928 26.336,39.59 1.974,6.936 2.974,14.147 2.974,21.431 0,5.743 -0.625,11.469 -1.858,17.02 -2.703,12.165 -8.391,23.661 -16.451,33.244 -10.642,12.654 -25.296,21.762 -41.263,25.649 -0.359,14.229 -3.474,27.989 -9.258,40.895 -7.339,16.371 -18.81,30.756 -33.172,41.598 -17.611,13.295 -38.587,20.694 -60.661,21.396 l -3.45,0.055 c -30.208,0 -59.125,-12.925 -79.338,-35.462"
                           style="fill:url(#radialGradient3990);stroke:none"
                           id="path4022"
                           inkscape:connector-curvature="0" /></g></g></g></g></g></g></g></g></g></mask><clipPath
       clipPathUnits="userSpaceOnUse"
       id="clipPath4028"><path
         d="m 26.6665,275.5 458.6675,0 0,-258 -458.6675,0 0,258 z"
         id="path4030"
         inkscape:connector-curvature="0" /></clipPath><clipPath
       clipPathUnits="userSpaceOnUse"
       id="clipPath4042"><path
         d="m 26.6665,275.5 458.6675,0 0,-258 -458.6675,0 0,258 z"
         id="path4044"
         inkscape:connector-curvature="0" /></clipPath><clipPath
       clipPathUnits="userSpaceOnUse"
       id="clipPath4046"><path
         d="m 26.6665,275.5 458.6675,0 0,-258 -458.6675,0 0,258 z"
         id="path4048"
         inkscape:connector-curvature="0" /></clipPath><radialGradient
       fx="0"
       fy="0"
       cx="0"
       cy="0"
       r="1"
       gradientUnits="userSpaceOnUse"
       gradientTransform="matrix(117.59677,0,0,-117.59677,327,209)"
       spreadMethod="pad"
       id="radialGradient4054"><stop
         style="stop-opacity:1;stop-color:#ffffff"
         offset="0"
         id="stop4056" /><stop
         style="stop-opacity:1;stop-color:#d1d3d4"
         offset="0.00561798"
         id="stop4058" /><stop
         style="stop-opacity:1;stop-color:#231f20"
         offset="1"
         id="stop4060" /></radialGradient><mask
       maskUnits="userSpaceOnUse"
       x="0"
       y="0"
       width="1"
       height="1"
       id="mask4062"><g
         id="g4064"><g
           clip-path="url(#clipPath4042)"
           id="g4066"><path
             d="m 26.667,275.5 458.667,0 0,-258 -458.667,0 0,258 z"
             style="fill:#000000;fill-opacity:1;fill-rule:nonzero;stroke:none"
             id="path4068"
             inkscape:connector-curvature="0" /><g
             id="g4070"><g
               id="g4072" /><g
               id="g4074"><g
                 clip-path="url(#clipPath4046)"
                 id="g4076"><g
                   id="g4078"><g
                     id="g4080"><g
                       id="g4082"><g
                         id="g4084"><path
                           d="m 239.883,240.038 c -1.507,-1.681 -2.973,-3.423 -4.358,-5.179 -11.442,14.791 -28.7,23.275 -47.349,23.275 -2.848,0 -5.712,-0.202 -8.511,-0.601 -15.787,-2.249 -29.779,-10.553 -39.399,-23.383 -7.818,-10.424 -11.95,-22.843 -11.95,-35.913 0,-2.794 0.205,-5.65 0.611,-8.49 -5.165,0.933 -10.375,1.405 -15.485,1.405 -10.912,0 -21.552,-2.001 -31.625,-5.946 -10.879,-4.263 -20.651,-10.588 -29.044,-18.8 -8.641,-8.456 -15.307,-18.4 -19.814,-29.556 -4.175,-10.335 -6.292,-21.278 -6.292,-32.523 0,-5.575 0.531,-11.152 1.579,-16.577 C 31.533,70.738 39.779,55.236 52.093,42.919 61.439,33.57 72.955,26.383 85.396,22.135 94.4,19.06 103.836,17.5 113.441,17.5 l 293.952,0.005 c 17.884,0.034 34.701,5.953 48.631,17.117 12.776,10.238 21.882,23.928 26.336,39.59 1.974,6.936 2.974,14.147 2.974,21.431 0,5.743 -0.625,11.469 -1.858,17.02 -2.703,12.165 -8.391,23.661 -16.451,33.244 -10.642,12.654 -25.296,21.762 -41.263,25.649 -0.359,14.229 -3.474,27.989 -9.258,40.895 -7.339,16.371 -18.81,30.756 -33.172,41.598 -17.611,13.295 -38.587,20.694 -60.661,21.396 l -3.45,0.055 c -30.208,0 -59.125,-12.925 -79.338,-35.462"
                           style="fill:url(#radialGradient4054);stroke:none"
                           id="path4086"
                           inkscape:connector-curvature="0" /></g></g></g></g></g></g></g></g></g></mask><clipPath
       clipPathUnits="userSpaceOnUse"
       id="clipPath4092"><path
         d="m 26.6665,275.5 458.6675,0 0,-258 -458.6675,0 0,258 z"
         id="path4094"
         inkscape:connector-curvature="0" /></clipPath><clipPath
       clipPathUnits="userSpaceOnUse"
       id="clipPath4106"><path
         d="m 26.6665,275.5 458.6675,0 0,-258 -458.6675,0 0,258 z"
         id="path4108"
         inkscape:connector-curvature="0" /></clipPath><clipPath
       clipPathUnits="userSpaceOnUse"
       id="clipPath4110"><path
         d="m 26.6665,275.5 458.6675,0 0,-258 -458.6675,0 0,258 z"
         id="path4112"
         inkscape:connector-curvature="0" /></clipPath><radialGradient
       fx="0"
       fy="0"
       cx="0"
       cy="0"
       r="1"
       gradientUnits="userSpaceOnUse"
       gradientTransform="matrix(116.10771,0,0,-116.1077,400,92)"
       spreadMethod="pad"
       id="radialGradient4118"><stop
         style="stop-opacity:1;stop-color:#ffffff"
         offset="0"
         id="stop4120" /><stop
         style="stop-opacity:1;stop-color:#e7e7e8"
         offset="0.00561798"
         id="stop4122" /><stop
         style="stop-opacity:1;stop-color:#231f20"
         offset="1"
         id="stop4124" /></radialGradient><mask
       maskUnits="userSpaceOnUse"
       x="0"
       y="0"
       width="1"
       height="1"
       id="mask4126"><g
         id="g4128"><g
           clip-path="url(#clipPath4106)"
           id="g4130"><path
             d="m 26.667,275.5 458.667,0 0,-258 -458.667,0 0,258 z"
             style="fill:#000000;fill-opacity:1;fill-rule:nonzero;stroke:none"
             id="path4132"
             inkscape:connector-curvature="0" /><g
             id="g4134"><g
               id="g4136" /><g
               id="g4138"><g
                 clip-path="url(#clipPath4110)"
                 id="g4140"><g
                   id="g4142"><g
                     id="g4144"><g
                       id="g4146"><g
                         id="g4148"><path
                           d="m 239.883,240.038 c -1.507,-1.681 -2.973,-3.423 -4.358,-5.179 -11.442,14.791 -28.7,23.275 -47.349,23.275 -2.848,0 -5.712,-0.202 -8.511,-0.601 -15.787,-2.249 -29.779,-10.553 -39.399,-23.383 -7.818,-10.424 -11.95,-22.843 -11.95,-35.913 0,-2.794 0.205,-5.65 0.611,-8.49 -5.165,0.933 -10.375,1.405 -15.485,1.405 -10.912,0 -21.552,-2.001 -31.625,-5.946 -10.879,-4.263 -20.651,-10.588 -29.044,-18.8 -8.641,-8.456 -15.307,-18.4 -19.814,-29.556 -4.175,-10.335 -6.292,-21.278 -6.292,-32.523 0,-5.575 0.531,-11.152 1.579,-16.577 C 31.533,70.738 39.779,55.236 52.093,42.919 61.439,33.57 72.955,26.383 85.396,22.135 94.4,19.06 103.836,17.5 113.441,17.5 l 293.952,0.005 c 17.884,0.034 34.701,5.953 48.631,17.117 12.776,10.238 21.882,23.928 26.336,39.59 1.974,6.936 2.974,14.147 2.974,21.431 0,5.743 -0.625,11.469 -1.858,17.02 -2.703,12.165 -8.391,23.661 -16.451,33.244 -10.642,12.654 -25.296,21.762 -41.263,25.649 -0.359,14.229 -3.474,27.989 -9.258,40.895 -7.339,16.371 -18.81,30.756 -33.172,41.598 -17.611,13.295 -38.587,20.694 -60.661,21.396 l -3.45,0.055 c -30.208,0 -59.125,-12.925 -79.338,-35.462"
                           style="fill:url(#radialGradient4118);stroke:none"
                           id="path4150"
                           inkscape:connector-curvature="0" /></g></g></g></g></g></g></g></g></g></mask><clipPath
       clipPathUnits="userSpaceOnUse"
       id="clipPath4156"><path
         d="m 26.6665,275.5 458.6675,0 0,-258 -458.6675,0 0,258 z"
         id="path4158"
         inkscape:connector-curvature="0" /></clipPath><clipPath
       clipPathUnits="userSpaceOnUse"
       id="clipPath4170"><path
         d="m 26.6665,275.5 458.6675,0 0,-258 -458.6675,0 0,258 z"
         id="path4172"
         inkscape:connector-curvature="0" /></clipPath><clipPath
       clipPathUnits="userSpaceOnUse"
       id="clipPath4174"><path
         d="m 26.6665,275.5 458.6675,0 0,-258 -458.6675,0 0,258 z"
         id="path4176"
         inkscape:connector-curvature="0" /></clipPath><radialGradient
       fx="0"
       fy="0"
       cx="0"
       cy="0"
       r="1"
       gradientUnits="userSpaceOnUse"
       gradientTransform="matrix(130.96947,0,0,-130.96947,129,276)"
       spreadMethod="pad"
       id="radialGradient4182"><stop
         style="stop-opacity:1;stop-color:#ffffff"
         offset="0"
         id="stop4184" /><stop
         style="stop-opacity:1;stop-color:#231f20"
         offset="1"
         id="stop4186" /></radialGradient><mask
       maskUnits="userSpaceOnUse"
       x="0"
       y="0"
       width="1"
       height="1"
       id="mask4188"><g
         id="g4190"><g
           clip-path="url(#clipPath4170)"
           id="g4192"><path
             d="m 26.667,275.5 458.667,0 0,-258 -458.667,0 0,258 z"
             style="fill:#000000;fill-opacity:1;fill-rule:nonzero;stroke:none"
             id="path4194"
             inkscape:connector-curvature="0" /><g
             id="g4196"><g
               id="g4198" /><g
               id="g4200"><g
                 clip-path="url(#clipPath4174)"
                 id="g4202"><g
                   id="g4204"><g
                     id="g4206"><g
                       id="g4208"><g
                         id="g4210"><path
                           d="m 239.883,240.038 c -1.507,-1.681 -2.973,-3.423 -4.358,-5.179 -11.442,14.791 -28.7,23.275 -47.349,23.275 -2.848,0 -5.712,-0.202 -8.511,-0.601 -15.787,-2.249 -29.779,-10.553 -39.399,-23.383 -7.818,-10.424 -11.95,-22.843 -11.95,-35.913 0,-2.794 0.205,-5.65 0.611,-8.49 -5.165,0.933 -10.375,1.405 -15.485,1.405 -10.912,0 -21.552,-2.001 -31.625,-5.946 -10.879,-4.263 -20.651,-10.588 -29.044,-18.8 -8.641,-8.456 -15.307,-18.4 -19.814,-29.556 -4.175,-10.335 -6.292,-21.278 -6.292,-32.523 0,-5.575 0.531,-11.152 1.579,-16.577 C 31.533,70.738 39.779,55.236 52.093,42.919 61.439,33.57 72.955,26.383 85.396,22.135 94.4,19.06 103.836,17.5 113.441,17.5 l 293.952,0.005 c 17.884,0.034 34.701,5.953 48.631,17.117 12.776,10.238 21.882,23.928 26.336,39.59 1.974,6.936 2.974,14.147 2.974,21.431 0,5.743 -0.625,11.469 -1.858,17.02 -2.703,12.165 -8.391,23.661 -16.451,33.244 -10.642,12.654 -25.296,21.762 -41.263,25.649 -0.359,14.229 -3.474,27.989 -9.258,40.895 -7.339,16.371 -18.81,30.756 -33.172,41.598 -17.611,13.295 -38.587,20.694 -60.661,21.396 l -3.45,0.055 c -30.208,0 -59.125,-12.925 -79.338,-35.462"
                           style="fill:url(#radialGradient4182);stroke:none"
                           id="path4212"
                           inkscape:connector-curvature="0" /></g></g></g></g></g></g></g></g></g></mask><clipPath
       clipPathUnits="userSpaceOnUse"
       id="clipPath4218"><path
         d="m 26.6665,275.5 458.6675,0 0,-258 -458.6675,0 0,258 z"
         id="path4220"
         inkscape:connector-curvature="0" /></clipPath><clipPath
       clipPathUnits="userSpaceOnUse"
       id="clipPath4232"><path
         d="m 26.6665,275.5 458.6675,0 0,-258 -458.6675,0 0,258 z"
         id="path4234"
         inkscape:connector-curvature="0" /></clipPath><clipPath
       clipPathUnits="userSpaceOnUse"
       id="clipPath4236"><path
         d="m 26.6665,275.5 458.6675,0 0,-258 -458.6675,0 0,258 z"
         id="path4238"
         inkscape:connector-curvature="0" /></clipPath><radialGradient
       fx="0"
       fy="0"
       cx="0"
       cy="0"
       r="1"
       gradientUnits="userSpaceOnUse"
       gradientTransform="matrix(329.3591,0,0,-329.3591,166,15)"
       spreadMethod="pad"
       id="radialGradient4244"><stop
         style="stop-opacity:1;stop-color:#ffffff"
         offset="0"
         id="stop4246" /><stop
         style="stop-opacity:1;stop-color:#939598"
         offset="0.00561798"
         id="stop4248" /><stop
         style="stop-opacity:1;stop-color:#231f20"
         offset="1"
         id="stop4250" /></radialGradient><mask
       maskUnits="userSpaceOnUse"
       x="0"
       y="0"
       width="1"
       height="1"
       id="mask4252"><g
         id="g4254"><g
           clip-path="url(#clipPath4232)"
           id="g4256"><path
             d="m 26.667,275.5 458.667,0 0,-258 -458.667,0 0,258 z"
             style="fill:#000000;fill-opacity:1;fill-rule:nonzero;stroke:none"
             id="path4258"
             inkscape:connector-curvature="0" /><g
             id="g4260"><g
               id="g4262" /><g
               id="g4264"><g
                 clip-path="url(#clipPath4236)"
                 id="g4266"><g
                   id="g4268"><g
                     id="g4270"><g
                       id="g4272"><g
                         id="g4274"><path
                           d="m 239.883,240.038 c -1.507,-1.681 -2.973,-3.423 -4.358,-5.179 -11.442,14.791 -28.7,23.275 -47.349,23.275 -2.848,0 -5.712,-0.202 -8.511,-0.601 -15.787,-2.249 -29.779,-10.553 -39.399,-23.383 -7.818,-10.424 -11.95,-22.843 -11.95,-35.913 0,-2.794 0.205,-5.65 0.611,-8.49 -5.165,0.933 -10.375,1.405 -15.485,1.405 -10.912,0 -21.552,-2.001 -31.625,-5.946 -10.879,-4.263 -20.651,-10.588 -29.044,-18.8 -8.641,-8.456 -15.307,-18.4 -19.814,-29.556 -4.175,-10.335 -6.292,-21.278 -6.292,-32.523 0,-5.575 0.531,-11.152 1.579,-16.577 C 31.533,70.738 39.779,55.236 52.093,42.919 61.439,33.57 72.955,26.383 85.396,22.135 94.4,19.06 103.836,17.5 113.441,17.5 l 293.952,0.005 c 17.884,0.034 34.701,5.953 48.631,17.117 12.776,10.238 21.882,23.928 26.336,39.59 1.974,6.936 2.974,14.147 2.974,21.431 0,5.743 -0.625,11.469 -1.858,17.02 -2.703,12.165 -8.391,23.661 -16.451,33.244 -10.642,12.654 -25.296,21.762 -41.263,25.649 -0.359,14.229 -3.474,27.989 -9.258,40.895 -7.339,16.371 -18.81,30.756 -33.172,41.598 -17.611,13.295 -38.587,20.694 -60.661,21.396 l -3.45,0.055 c -30.208,0 -59.125,-12.925 -79.338,-35.462"
                           style="fill:url(#radialGradient4244);stroke:none"
                           id="path4276"
                           inkscape:connector-curvature="0" /></g></g></g></g></g></g></g></g></g></mask><clipPath
       clipPathUnits="userSpaceOnUse"
       id="clipPath4282"><path
         d="m 26.6665,275.5 458.6675,0 0,-258 -458.6675,0 0,258 z"
         id="path4284"
         inkscape:connector-curvature="0" /></clipPath><radialGradient
       inkscape:collect="always"
       xlink:href="#linearGradient7864"
       id="radialGradient7874"
       cx="-3.5071833"
       cy="4.0270309"
       fx="-3.5071833"
       fy="4.0270309"
       r="23.207181"
       gradientTransform="matrix(0.68944174,0,-4.077134e-8,0.34472089,12.517999,7.4117983)"
       gradientUnits="userSpaceOnUse" /><radialGradient
       inkscape:collect="always"
       xlink:href="#linearGradient7864-5"
       id="radialGradient7874-3"
       cx="-3.5071833"
       cy="4.0270309"
       fx="-3.5071833"
       fy="4.0270309"
       r="23.207182"
       gradientTransform="matrix(0.41366504,-7.0670721e-8,3.3922566e-8,0.34472089,11.550799,7.4117981)"
       gradientUnits="userSpaceOnUse" /><linearGradient
       inkscape:collect="always"
       id="linearGradient7864-5"><stop
         style="stop-color:#ffffff;stop-opacity:1;"
         offset="0"
         id="stop7866-6" /><stop
         style="stop-color:#ffffff;stop-opacity:0;"
         offset="1"
         id="stop7868-1" /></linearGradient><radialGradient
       inkscape:collect="always"
       xlink:href="#linearGradient7864-5"
       id="radialGradient7912"
       cx="27.700001"
       cy="5.3435984"
       fx="27.700001"
       fy="5.3435984"
       r="23.207181"
       gradientTransform="matrix(-1.0883129e-8,1,-0.89627424,0,37.28933,-15.700001)"
       gradientUnits="userSpaceOnUse" /><radialGradient
       inkscape:collect="always"
       xlink:href="#linearGradient7864-5-5"
       id="radialGradient7912-8"
       cx="27.700001"
       cy="4.4510145"
       fx="27.700001"
       fy="4.4510145"
       r="23.207182"
       gradientTransform="matrix(-1.0883129e-8,1,-0.89627424,0,37.28933,-15.700001)"
       gradientUnits="userSpaceOnUse" /><linearGradient
       inkscape:collect="always"
       id="linearGradient7864-5-5"><stop
         style="stop-color:#ffffff;stop-opacity:1;"
         offset="0"
         id="stop7866-6-1" /><stop
         style="stop-color:#ffffff;stop-opacity:0;"
         offset="1"
         id="stop7868-1-1" /></linearGradient><radialGradient
       inkscape:collect="always"
       xlink:href="#linearGradient7864-5-5"
       id="radialGradient7950"
       cx="35.206223"
       cy="9.1370935"
       fx="35.206223"
       fy="9.1370935"
       r="23.207181"
       gradientTransform="matrix(0.55155341,3.7148136e-8,0,0.4481371,-3.718113,15.105328)"
       gradientUnits="userSpaceOnUse" /></defs><sodipodi:namedview
     pagecolor="#ffffff"
     bordercolor="#666666"
     borderopacity="1"
     objecttolerance="10"
     gridtolerance="10"
     guidetolerance="10"
     inkscape:pageopacity="0"
     inkscape:pageshadow="2"
     inkscape:window-width="1680"
     inkscape:window-height="988"
     id="namedview3956"
     showgrid="true"
     inkscape:zoom="8"
     inkscape:cx="24.216733"
     inkscape:cy="18.230874"
     inkscape:window-x="-8"
     inkscape:window-y="-8"
     inkscape:window-maximized="1"
     inkscape:current-layer="g6595"
     width="64px"
     inkscape:snap-global="true"
     inkscape:snap-nodes="false"><inkscape:grid
       type="xygrid"
       id="grid4300"
       empspacing="4"
       visible="true"
       enabled="true"
       snapvisiblegridlinesonly="true" /></sodipodi:namedview><g
     id="g3962"
     inkscape:groupmode="layer"
     inkscape:label="cloud"
     transform="matrix(1.25,0,0,-1.25,-0.625,64)"
     style="display:inline"><g
       inkscape:groupmode="layer"
       id="layer4"
       inkscape:label="fill"><path
         style="fill:#a5daf6;fill-opacity:1;stroke:none;stroke-width:1.5999999;marker-start:none;display:inline"
         d="m 11.484407,0.80000105 c -0.949832,0 -1.9030054,0.149337 -2.7960458,0.45435695 C 7.4582044,1.674465 6.3307422,2.388409 5.4030072,3.316442 4.1806138,4.539133 3.387039,6.069386 3.0613187,7.755165 2.9568293,8.296157 2.8865658,8.956966 2.8865658,9.505042 c 0,1.112328 0.1137602,1.762274 0.5291103,2.790452 0.4475343,1.107718 1.3179456,2.447084 2.2843239,3.154507 0.7794156,0.57056 2.2661505,1.35 3.7249996,1.35 1.7624994,0 3.6015164,-0.414478 3.8750004,-0.5 -0.0555,0.354413 -0.06187,1.346692 -0.06004,1.778326 0,1.277375 0.451173,2.596177 1.215241,3.614936 0.939894,1.253388 2.304782,2.052418 3.844563,2.271787 0.254534,0.03627 0.542943,0.04909 0.838814,0.03495 1.816238,-0.08675 3.462049,-0.55 4.561419,-2.4 0.200168,0.287738 0.460555,0.578865 0.656413,0.805667 C 26.372346,24.653385 29.581774,26.4 32.594549,26.4 l 0.349506,0 c 2.203421,0 4.288484,-0.80485 6.046449,-2.131985 1.432016,-1.081041 2.403103,-2.425596 3.135355,-4.059119 0.58869,-1.529007 1.024137,-3.702531 0.774137,-5.008895 1.648981,0.15 3.671092,-0.539557 4.618453,-1.640683 0.793494,-0.943429 1.37569,-2.08376 1.642677,-3.285353 0.120445,-0.542346 0.139802,-1.105114 0.139802,-1.677628 0,-0.72631 -0.05108,-1.523876 -0.244653,-2.204235 C 48.61688,4.847022 47.69702,3.488959 46.43498,2.477628 45.057174,1.373406 43.415776,0.80336505 41.646751,0.80000105 z"
         id="path6679-0"
         inkscape:connector-curvature="0"
         sodipodi:nodetypes="ccccscssccccscccsccccccsccc" /><path
         style="fill:url(#radialGradient7874);fill-opacity:1;stroke:none;stroke-width:1.5999999;marker-start:none;display:inline"
         d="m 11.484407,0.800001 c -0.949832,0 -1.9030054,0.149337 -2.7960458,0.454357 C 7.4582044,1.674465 6.3307422,2.388409 5.4030072,3.316442 4.1806138,4.539133 3.387039,6.069386 3.0613187,7.755165 2.9568293,8.296157 2.8865658,8.956966 2.8865658,9.505042 c 0,1.112328 0.1137602,1.762274 0.5291103,2.790452 0.4475343,1.107718 1.3179456,2.447084 2.2843239,3.154507 0.7794156,0.57056 2.2661505,1.35 3.7249996,1.35 1.7624994,0 3.6015164,-0.414478 3.8750004,-0.5 -0.0555,0.354413 -0.06187,1.346692 -0.06004,1.778326 0,1.277375 0.451173,2.596177 1.215241,3.614936 0.939894,1.253388 2.304782,2.052418 3.844563,2.271787 0.254534,0.03627 0.542944,0.04909 0.838814,0.03495 1.816238,-0.08675 3.462049,-0.55 4.561419,-2.4 0.200168,0.287738 0.460555,0.578865 0.656413,0.805667 C 26.372346,24.653385 29.581774,26.4 32.594549,26.4 l 0.349506,0 c 2.203421,0 4.288485,-0.80485 6.046449,-2.131985 1.432016,-1.081041 2.403104,-2.425596 3.135355,-4.059119 0.58869,-1.529007 1.024137,-3.702531 0.774137,-5.008895 1.648981,0.15 3.671092,-0.539557 4.618453,-1.640683 0.793495,-0.943429 1.375691,-2.08376 1.642677,-3.285353 0.120445,-0.542346 0.139802,-1.105114 0.139802,-1.677628 0,-0.72631 -0.05108,-1.523876 -0.244652,-2.204235 C 48.61688,4.847022 47.69702,3.488959 46.43498,2.477628 45.057174,1.373406 43.415776,0.803365 41.646751,0.800001 z"
         id="path6679-0-2"
         inkscape:connector-curvature="0"
         sodipodi:nodetypes="ccccscssccccscccsccccccsccc" /><path
         style="fill:url(#radialGradient7912);fill-opacity:1;stroke:none;stroke-width:1.5999999;marker-start:none;display:inline"
         d="m 11.484407,0.800001 c -0.949832,0 -1.9030054,0.149337 -2.7960458,0.454357 C 7.4582044,1.674465 6.3307422,2.388409 5.4030072,3.316442 4.1806138,4.539133 3.387039,6.069386 3.0613187,7.755165 2.9568293,8.296157 2.8865658,8.956966 2.8865658,9.505042 c 0,1.112328 0.1137602,1.762274 0.5291103,2.790452 0.4475343,1.107718 1.3179456,2.447084 2.2843239,3.154507 0.7794156,0.57056 2.2661505,1.35 3.7249996,1.35 1.7624994,0 3.6015164,-0.414478 3.8750004,-0.5 -0.0555,0.354413 -0.06187,1.346692 -0.06004,1.778326 0,1.277375 0.451173,2.596177 1.215241,3.614936 0.939894,1.253388 2.304782,2.052418 3.844563,2.271787 0.254534,0.03627 0.542944,0.04909 0.838814,0.03495 1.816238,-0.08675 3.462049,-0.55 4.561419,-2.4 0.200168,0.287738 0.460555,0.578865 0.656413,0.805667 C 26.372346,24.653385 29.581774,26.4 32.594549,26.4 l 0.349506,0 c 2.203421,0 4.288485,-0.80485 6.046449,-2.131985 1.432016,-1.081041 2.403104,-2.425596 3.135355,-4.059119 0.58869,-1.529007 1.024137,-3.702531 0.774137,-5.008895 1.648981,0.15 3.671092,-0.539557 4.618453,-1.640683 0.793495,-0.943429 1.375691,-2.08376 1.642677,-3.285353 0.120445,-0.542346 0.139802,-1.105114 0.139802,-1.677628 0,-0.72631 -0.05108,-1.523876 -0.244652,-2.204235 C 48.61688,4.847022 47.69702,3.488959 46.43498,2.477628 45.057174,1.373406 43.415776,0.803365 41.646751,0.800001 z"
         id="path6679-0-2-8"
         inkscape:connector-curvature="0"
         sodipodi:nodetypes="ccccscssccccscccsccccccsccc" /><path
         style="fill:url(#radialGradient7950);fill-opacity:1;stroke:none;stroke-width:1.5999999;marker-start:none;display:inline"
         d="m 11.484407,0.800001 c -0.949832,0 -1.9030054,0.149337 -2.7960458,0.454357 C 7.4582044,1.674465 6.3307422,2.388409 5.4030072,3.316442 4.1806138,4.539133 3.387039,6.069386 3.0613187,7.755165 2.9568293,8.296157 2.8865658,8.956966 2.8865658,9.505042 c 0,1.112328 0.1137602,1.762274 0.5291103,2.790452 0.4475343,1.107718 1.3179456,2.447084 2.2843239,3.154507 0.7794156,0.57056 2.2661505,1.35 3.7249996,1.35 1.7624994,0 3.6015164,-0.414478 3.8750004,-0.5 -0.0555,0.354413 -0.06187,1.346692 -0.06004,1.778326 0,1.277375 0.451173,2.596177 1.215241,3.614936 0.939894,1.253388 2.304782,2.052418 3.844563,2.271787 0.254534,0.03627 0.542944,0.04909 0.838814,0.03495 1.816238,-0.08675 3.462049,-0.55 4.561419,-2.4 0.200168,0.287738 0.460555,0.578865 0.656413,0.805667 C 26.372346,24.653385 29.581774,26.4 32.594549,26.4 l 0.349506,0 c 2.203421,0 4.288485,-0.80485 6.046449,-2.131985 1.432016,-1.081041 2.403104,-2.425596 3.135355,-4.059119 0.58869,-1.529007 1.024137,-3.702531 0.774137,-5.008895 1.648981,0.15 3.671092,-0.539557 4.618453,-1.640683 0.793495,-0.943429 1.375691,-2.08376 1.642677,-3.285353 0.120445,-0.542346 0.139802,-1.105114 0.139802,-1.677628 0,-0.72631 -0.05108,-1.523876 -0.244652,-2.204235 C 48.61688,4.847022 47.69702,3.488959 46.43498,2.477628 45.057174,1.373406 43.415776,0.803365 41.646751,0.800001 z"
         id="path6679-0-2-8-1"
         inkscape:connector-curvature="0"
         sodipodi:nodetypes="ccccscssccccscccsccccccsccc" /></g><g
       inkscape:groupmode="layer"
       id="layer1"
       inkscape:label="outline"
       style="display:inline"><path
         transform="matrix(1.1184184,0,0,1.1184184,-3.0899825,-3.4266712)"
         style="fill:none;stroke:#5692e8;stroke-width:1.43059158;stroke-linecap:round;stroke-linejoin:miter;stroke-miterlimit:4;stroke-opacity:1;stroke-dasharray:none;marker-start:none;display:inline"
         d="m 13.03125,3.7791503 c -0.849264,0 -1.701515,0.1335253 -2.5,0.40625 C 9.4313424,4.5610259 8.4232562,5.1993778 7.59375,6.0291503 6.5007839,7.1223827 5.791233,8.4906124 5.5,9.9979003 5.406574,10.481612 5.34375,11.072454 5.34375,11.5625 c 0,0.994555 0.1017152,1.575684 0.473088,2.494999 0.4001492,0.990432 1.1784012,2.187985 2.0424591,2.820506 0.696891,0.510149 2.02621,1.207062 3.3305959,1.207062 1.575886,0 3.220187,-0.370593 3.464714,-0.44706 -0.04962,0.316888 -0.05532,1.204104 -0.05368,1.590037 0,1.142126 0.403403,2.321293 1.086571,3.232185 0.840378,1.120679 2.060751,1.835108 3.4375,2.03125 0.227584,0.03243 0.485456,0.04389 0.75,0.03125 1.623934,-0.07757 3.095486,-0.491766 4.078455,-2.145888 0.178974,0.257273 0.411791,0.517575 0.586912,0.720363 1.802488,2.009729 4.672101,3.571412 7.365883,3.571412 l 0.3125,0 c 1.970122,0 3.834418,-0.719632 5.40625,-1.90625 1.280393,-0.96658 2.148661,-2.168773 2.803382,-3.629338 0.52636,-1.367116 0.915702,-3.310507 0.692172,-4.478553 1.474386,0.134118 3.282396,-0.482428 4.12945,-1.466966 0.709478,-0.843539 1.230031,-1.863132 1.46875,-2.9375 0.107692,-0.484922 0.125,-0.988104 0.125,-1.5 0,-0.649408 -0.04567,-1.3625279 -0.21875,-1.9708497 C 46.232131,7.3976718 45.409665,6.1834014 44.28125,5.2791503 43.049327,4.2918433 41.58172,3.7821588 40,3.7791503 z"
         id="path6679"
         inkscape:connector-curvature="0"
         sodipodi:nodetypes="ccccscssccccscccsccccccsccc" /></g></g><g
     style="display:inline"
     transform="matrix(1.25,0,0,-1.25,-0.625,64)"
     inkscape:label="note"
     inkscape:groupmode="layer"
     id="g6595"><path
       style="fill:#004591;fill-opacity:1;fill-rule:nonzero;stroke:#5692e8;stroke-width:1.6;stroke-linejoin:miter;stroke-miterlimit:4;stroke-opacity:1;stroke-dasharray:none"
       d="M 29.129293,4.8 C 27.585211,4.8 26.26426,5.2718704 25.31968,6.0931713 24.3751,6.9144722 23.7,8.2345621 23.7,9.6 c 0,2.193465 1.23534,4.361396 3.122555,5.996954 1.933769,1.675968 4.449146,3.026725 7.094966,3.026725 0.694658,0 1.27664,-0.0661 1.782479,-0.223679 0.0026,2.000048 0,30.840383 0,30.840383 0,0.460359 0.213127,0.87377 0.564061,1.017267 0.176564,0.07182 0.507412,0.12762 0.86891,0.1361 0.565333,0.01231 0.745275,-0.05276 1.102968,-0.279604 C 38.593633,49.887297 38.809456,49.519627 38.9,49.065628 39.516313,46.16586 40.825271,43.363156 43.198921,39.978479 45.306146,37.111715 48.295384,32.612672 48.5,27.2 48.5452,25.951868 48.264403,24.47215 48.005594,23.2 47.757228,22.401241 47.629692,21.864671 47.345822,21.083468 47.099225,20.528733 46.738825,20.158497 46.297304,20 c -0.336041,-0.120861 -0.707239,-0.135451 -1.048517,0.03495 -0.562382,0.281647 -0.977806,0.401092 -0.977806,1.17507 0.02062,0.312274 0.07701,0.573767 0.174753,0.838812 C 45.092262,23.569359 45.3,25.670294 45.3,27.2 c 0,2.147516 -0.424857,3.601868 -0.854266,4.739845 -1.096606,3.04265 -3.292035,5.028168 -5.545734,5.871696 l 0,-24.626181 0,-0.03495 C 38.742908,11.130025 37.746751,8.9142576 35.66505,7.2814909 33.683837,5.7272102 31.257298,4.8 29.129293,4.8 z"
       id="path6677"
       inkscape:connector-curvature="0"
       sodipodi:nodetypes="ssscsccccscccccccccscccccs" /></g></svg>