<?xml version="1.0" encoding="UTF-8" standalone="no"?>
<!-- Created with Inkscape (http://www.inkscape.org/) -->

<svg
   xmlns:dc="http://purl.org/dc/elements/1.1/"
   xmlns:cc="http://creativecommons.org/ns#"
   xmlns:rdf="http://www.w3.org/1999/02/22-rdf-syntax-ns#"
   xmlns:svg="http://www.w3.org/2000/svg"
   xmlns="http://www.w3.org/2000/svg"
   xmlns:sodipodi="http://sodipodi.sourceforge.net/DTD/sodipodi-0.dtd"
   xmlns:inkscape="http://www.inkscape.org/namespaces/inkscape"
   width="32px"
   height="32px"
   id="svg3262"
   version="1.1"
   inkscape:version="0.48.4 r9939"
   sodipodi:docname="eighth-rest.svg">
  <defs
     id="defs3264" />
  <sodipodi:namedview
     id="base"
     pagecolor="#ffffff"
     bordercolor="#666666"
     borderopacity="1.0"
     inkscape:pageopacity="0.0"
     inkscape:pageshadow="2"
     inkscape:zoom="22.395604"
     inkscape:cx="13.523035"
     inkscape:cy="16.947253"
     inkscape:current-layer="layer1"
     showgrid="true"
     inkscape:grid-bbox="true"
     inkscape:document-units="px"
     inkscape:window-width="1680"
     inkscape:window-height="988"
     inkscape:window-x="-8"
     inkscape:window-y="-8"
     inkscape:window-maximized="1"
     inkscape:snap-global="true"
     inkscape:snap-page="true"
     inkscape:snap-bbox="true" />
  <metadata
     id="metadata3267">
    <rdf:RDF>
      <cc:Work
         rdf:about="">
        <dc:format>image/svg+xml</dc:format>
        <dc:type
           rdf:resource="http://purl.org/dc/dcmitype/StillImage" />
        <dc:title></dc:title>
      </cc:Work>
    </rdf:RDF>
  </metadata>
  <g
     id="layer1"
     inkscape:label="Layer 1"
     inkscape:groupmode="layer">
    <g
       style="font-size:47.34907532px;font-style:normal;font-variant:normal;font-weight:normal;font-stretch:normal;line-height:125%;letter-spacing:0px;word-spacing:0px;fill:#000000;fill-opacity:1;stroke:none;font-family:Bravura;-inkscape-font-specification:Bravura"
       id="text3054">
      <path
         d="m 21.279354,6.2624925 c -0.04539,-0.00394 -0.108518,0.00395 -0.189394,0.023674 -0.0809,0.019736 -0.191377,0.074976 -0.331439,0.1657203 -0.224916,0.2545054 -0.78126,0.810849 -1.669035,1.6690327 -0.887792,0.8581958 -1.7519,1.3435173 -2.592327,1.455966 l 0,-0.4734846 C 16.474465,8.2047715 16.164727,7.4570607 15.567945,6.8602659 14.971152,6.2634856 14.223442,5.9537484 13.324812,5.9310533 c -0.898637,0.022697 -1.646348,0.3324349 -2.243135,0.9292147 -0.596788,0.5967944 -0.906525,1.3445044 -0.929212,2.2431325 0.0089,0.5001225 0.133167,0.9558505 0.372869,1.3671865 0.239702,0.411343 0.541548,0.760538 0.905539,1.047585 0.212081,0.144021 0.427122,0.270283 0.645124,0.378788 0.217998,0.108509 0.444876,0.187423 0.680633,0.236742 0.190378,0.04932 0.389637,0.09273 0.597776,0.130209 0.208133,0.03749 0.419227,0.05721 0.633285,0.05918 0.334393,-0.002 0.659913,-0.03354 0.976561,-0.0947 0.316637,-0.06116 0.606647,-0.14007 0.870029,-0.236742 0.322554,-0.09173 0.612563,-0.192351 0.870027,-0.301847 0.257452,-0.109491 0.535624,-0.245618 0.834518,-0.40838 0.102581,-0.03946 0.181495,-0.05524 0.236742,-0.04735 0.09272,0.003 0.155848,0.04439 0.189394,0.124291 0.03353,0.0799 0.04931,0.180519 0.04735,0.301846 0.0079,0.149938 -0.0079,0.323549 -0.04735,0.520833 -0.08331,0.329395 -0.421761,1.348847 -1.015363,3.05836 -0.593615,1.709511 -1.226681,3.553177 -1.8992,5.531002 -0.672528,1.977812 -1.168809,3.53388 -1.488845,4.668208 0.03945,0.274216 0.232794,0.447827 0.580019,0.520833 0.347217,0.07298 0.611579,0.104549 0.793087,0.0947 0.267317,0.0039 0.549435,-0.02763 0.846354,-0.0947 0.296908,-0.06709 0.567189,-0.193352 0.810842,-0.378787 0.0593,-0.109999 0.32835,-0.993836 0.807143,-2.651515 0.478779,-1.657697 1.024518,-3.571362 1.637221,-5.741002 0.612686,-2.169645 1.149547,-4.077392 1.610588,-5.723245 0.461019,-1.6458482 0.703433,-2.5119295 0.727243,-2.5982468 0.09962,-0.4350092 0.196288,-0.8197155 0.29001,-1.15412 0.0937,-0.3343915 0.154857,-0.5652147 0.183475,-0.6924702 -0.01777,-0.2978934 -0.100627,-0.4951788 -0.24858,-0.5918565 -0.147976,-0.096662 -0.25451,-0.1519019 -0.319602,-0.165719 z"
         style=""
         id="path3059" />
    </g>
  </g>
</svg>
