<?xml version="1.0" encoding="UTF-8" standalone="no"?>
<!-- Created with Inkscape (http://www.inkscape.org/) -->

<svg
   xmlns:dc="http://purl.org/dc/elements/1.1/"
   xmlns:cc="http://creativecommons.org/ns#"
   xmlns:rdf="http://www.w3.org/1999/02/22-rdf-syntax-ns#"
   xmlns:svg="http://www.w3.org/2000/svg"
   xmlns="http://www.w3.org/2000/svg"
   xmlns:sodipodi="http://sodipodi.sourceforge.net/DTD/sodipodi-0.dtd"
   xmlns:inkscape="http://www.inkscape.org/namespaces/inkscape"
   width="32px"
   height="32px"
   id="svg3124"
   version="1.1"
   inkscape:version="0.48.4 r9939"
   sodipodi:docname="New document 3">
  <defs
     id="defs3126" />
  <sodipodi:namedview
     id="base"
     pagecolor="#ffffff"
     bordercolor="#666666"
     borderopacity="1.0"
     inkscape:pageopacity="0.0"
     inkscape:pageshadow="2"
     inkscape:zoom="11.197802"
     inkscape:cx="5.3282628"
     inkscape:cy="16"
     inkscape:current-layer="layer1"
     showgrid="true"
     inkscape:grid-bbox="true"
     inkscape:document-units="px"
     inkscape:window-width="882"
     inkscape:window-height="710"
     inkscape:window-x="175"
     inkscape:window-y="175"
     inkscape:window-maximized="0" />
  <metadata
     id="metadata3129">
    <rdf:RDF>
      <cc:Work
         rdf:about="">
        <dc:format>image/svg+xml</dc:format>
        <dc:type
           rdf:resource="http://purl.org/dc/dcmitype/StillImage" />
        <dc:title></dc:title>
      </cc:Work>
    </rdf:RDF>
  </metadata>
  <g
     id="layer1"
     inkscape:label="Layer 1"
     inkscape:groupmode="layer">
    <path
       inkscape:connector-curvature="0"
       d="M 21.121,26.523 C 20.904,28.101 19.45,32 14.252,32 c -1.918,0 -3.373,-1.083 -3.373,-2.939 0,-1.826 1.609,-5.848 6.838,-5.848 0.99,0 1.274,0.126 1.825,0.559 0,0 0,-22.7009999 0,-23.02199991 0,-0.32099997 0.332,-0.749999975 0.779,-0.749999975 0.447,0 0.799,0.411000005 0.799,0.749999975 0,0.33900001 0,25.77299991 0,25.77299991 z m -1.3,-1.144 c -0.495,-0.897 -1.485,-1.269 -4.765,0.65 -3.187,1.856 -3.465,2.939 -2.939,3.806 0.495,0.897 1.671,1.423 4.765,-0.65 3.28,-2.166 3.434,-2.939 2.939,-3.806 z"
       id="path3116" />
  </g>
</svg>
