<?xml version="1.0" encoding="UTF-8" standalone="no"?>
<!-- Created with Inkscape (http://www.inkscape.org/) -->

<svg
   xmlns:dc="http://purl.org/dc/elements/1.1/"
   xmlns:cc="http://creativecommons.org/ns#"
   xmlns:rdf="http://www.w3.org/1999/02/22-rdf-syntax-ns#"
   xmlns:svg="http://www.w3.org/2000/svg"
   xmlns="http://www.w3.org/2000/svg"
   xmlns:sodipodi="http://sodipodi.sourceforge.net/DTD/sodipodi-0.dtd"
   xmlns:inkscape="http://www.inkscape.org/namespaces/inkscape"
   width="32px"
   height="32px"
   id="svg3262"
   version="1.1"
   inkscape:version="0.48.4 r9939"
   sodipodi:docname="quarter-rest.svg">
  <defs
     id="defs3264" />
  <sodipodi:namedview
     id="base"
     pagecolor="#ffffff"
     bordercolor="#666666"
     borderopacity="1.0"
     inkscape:pageopacity="0.0"
     inkscape:pageshadow="2"
     inkscape:zoom="22.395604"
     inkscape:cx="13.523035"
     inkscape:cy="15.867763"
     inkscape:current-layer="layer1"
     showgrid="true"
     inkscape:grid-bbox="true"
     inkscape:document-units="px"
     inkscape:window-width="1680"
     inkscape:window-height="988"
     inkscape:window-x="-8"
     inkscape:window-y="-8"
     inkscape:window-maximized="1"
     inkscape:snap-global="true"
     inkscape:snap-page="true"
     inkscape:snap-bbox="true" />
  <metadata
     id="metadata3267">
    <rdf:RDF>
      <cc:Work
         rdf:about="">
        <dc:format>image/svg+xml</dc:format>
        <dc:type
           rdf:resource="http://purl.org/dc/dcmitype/StillImage" />
        <dc:title></dc:title>
      </cc:Work>
    </rdf:RDF>
  </metadata>
  <g
     id="layer1"
     inkscape:label="Layer 1"
     inkscape:groupmode="layer">
    <g
       style="font-size:42.78129959px;font-style:normal;font-variant:normal;font-weight:normal;font-stretch:normal;line-height:125%;letter-spacing:0px;word-spacing:0px;fill:#000000;fill-opacity:1;stroke:none;font-family:Bravura;-inkscape-font-specification:Bravura"
       id="text3061">
      <path
         d="m 20.171123,22.84492 c -0.834234,-0.959009 -1.52942,-1.896619 -2.085562,-2.812835 -0.556157,-0.916224 -0.844926,-1.960786 -0.866309,-3.133689 0.0018,-0.08735 0.0089,-0.180037 0.02139,-0.278076 0.01247,-0.09804 0.0196,-0.190732 0.02139,-0.278074 0.122988,-1.237968 0.475929,-2.377004 1.058825,-3.417113 0.582879,-1.040102 1.171113,-1.99732 1.764705,-2.871657 C 20.206764,9.8395782 20.263805,9.6256746 20.256685,9.4117646 20.249545,9.190737 20.221025,9.0017885 20.171123,8.8449184 20.121202,8.6880625 20.092682,8.6060665 20.085562,8.5989303 20.011874,8.510471 19.455725,7.850803 18.417113,6.6199242 17.378484,5.3890641 16.299459,4.1177907 15.180036,2.8061002 14.060602,1.4944361 13.342837,0.6731521 13.026738,0.34224581 12.91711,0.23441845 12.794115,0.15063946 12.657754,0.09090859 12.521388,0.03120946 12.387698,9.065657e-4 12.256685,-1.7811385e-7 12.033866,1.5779105e-5 11.837788,0.07488201 11.668449,0.22459875 c -0.169342,0.14974821 -0.258468,0.37434691 -0.267379,0.6737968 -0.0071,0.20678805 0.04991,0.43495185 0.171123,0.68449195 0.183599,0.2522422 0.639927,0.8814749 1.368984,1.8877002 0.729052,1.0062503 1.142598,2.2878891 1.240642,3.8449202 0.01336,0.7932337 -0.173802,1.6452827 -0.561499,2.5561497 -0.387704,0.9108794 -1.056152,1.8698804 -2.005346,2.8770054 -0.212123,0.217472 -0.365421,0.43494 -0.459894,0.652406 -0.09447,0.217471 -0.140821,0.413549 -0.139037,0.588236 0.01783,0.304814 0.08913,0.550803 0.213904,0.737967 0.124775,0.187167 0.196076,0.283423 0.213904,0.288771 l 2.096256,2.566845 c 0.341351,0.425131 0.663989,0.84759 0.967914,1.267379 0.303918,0.419783 0.59447,0.852938 0.871659,1.299466 0.04812,0.08645 0.101598,0.180923 0.160427,0.283423 0.05882,0.102491 0.0909,0.20766 0.09626,0.315507 8.85e-4,0.02317 -8.97e-4,0.05169 -0.0053,0.08556 -0.0045,0.03386 -0.01694,0.06239 -0.03743,0.08556 -0.04368,0.08377 -0.106066,0.140815 -0.187166,0.171123 -0.08111,0.0303 -0.175585,0.04456 -0.283422,0.04278 -0.130129,-0.0027 -0.254907,-0.01872 -0.374332,-0.04813 -0.119435,-0.02942 -0.222821,-0.05615 -0.31016,-0.08021 -0.108738,-0.0054 -0.22282,-0.02674 -0.342246,-0.06417 -0.119434,-0.03744 -0.233516,-0.05883 -0.342246,-0.06417 -0.950983,0.02941 -1.765599,0.430477 -2.443851,1.203209 -0.678253,0.77272 -1.032977,1.740634 -1.06417,2.903743 0.01159,1.062378 0.448307,2.135461 1.310161,3.219251 0.861852,1.083765 2.079319,2.221019 3.652406,3.411765 0.174683,0.128327 0.360066,0.224583 0.556149,0.28877 0.196072,0.06416 0.381455,0.09624 0.55615,0.09626 0.155074,-1.6e-5 0.294112,-0.02141 0.417113,-0.06417 0.122988,-0.0428 0.197854,-0.106968 0.224598,-0.192513 0.0499,-0.121228 0.07842,-0.221049 0.08556,-0.299465 -0.0071,-0.192529 -0.07844,-0.374347 -0.213904,-0.545454 -0.135479,-0.171138 -0.292342,-0.331565 -0.470588,-0.481284 -0.284319,-0.04012 -0.528526,-0.248677 -0.73262,-0.625669 -0.204105,-0.377019 -0.330665,-0.681831 -0.37968,-0.914438 -0.121217,-0.349388 -0.178258,-0.720154 -0.171123,-1.112299 -0.0018,-0.692525 0.162205,-1.339584 0.491978,-1.941178 0.329762,-0.601613 0.836001,-0.981291 1.518717,-1.139036 0.206767,-0.03566 0.43493,-0.04992 0.684492,-0.04278 0.639029,0.01425 1.264697,0.103378 1.877005,0.26738 0.61229,0.163984 1.098921,0.317281 1.459894,0.459893 0.02138,0.0018 0.04277,0.0089 0.06417,0.02139 0.02138,0.01247 0.04277,0.0196 0.06417,0.02139 0.121201,0.03564 0.221022,0.0499 0.299465,0.04278 0.135461,0.0071 0.206762,-0.04992 0.213904,-0.171123 -0.03655,-0.294127 -0.241544,-0.700544 -0.614973,-1.219252 -0.373452,-0.518724 -0.696089,-0.92514 -0.967915,-1.21925 z"
         style=""
         id="path3066" />
    </g>
  </g>
</svg>
