<?xml version="1.0" encoding="UTF-8" standalone="no"?>
<!-- Created with Inkscape (http://www.inkscape.org/) -->

<svg
   xmlns:dc="http://purl.org/dc/elements/1.1/"
   xmlns:cc="http://creativecommons.org/ns#"
   xmlns:rdf="http://www.w3.org/1999/02/22-rdf-syntax-ns#"
   xmlns:svg="http://www.w3.org/2000/svg"
   xmlns="http://www.w3.org/2000/svg"
   xmlns:sodipodi="http://sodipodi.sourceforge.net/DTD/sodipodi-0.dtd"
   xmlns:inkscape="http://www.inkscape.org/namespaces/inkscape"
   width="32px"
   height="32px"
   id="svg3262"
   version="1.1"
   inkscape:version="0.48.4 r9939"
   sodipodi:docname="sixteenth-rest.svg">
  <defs
     id="defs3264" />
  <sodipodi:namedview
     id="base"
     pagecolor="#ffffff"
     bordercolor="#666666"
     borderopacity="1.0"
     inkscape:pageopacity="0.0"
     inkscape:pageshadow="2"
     inkscape:zoom="22.395604"
     inkscape:cx="8.4824726"
     inkscape:cy="15.403194"
     inkscape:current-layer="layer1"
     showgrid="true"
     inkscape:grid-bbox="true"
     inkscape:document-units="px"
     inkscape:window-width="1680"
     inkscape:window-height="988"
     inkscape:window-x="-8"
     inkscape:window-y="-8"
     inkscape:window-maximized="1"
     inkscape:snap-page="true"
     inkscape:snap-bbox="true" />
  <metadata
     id="metadata3267">
    <rdf:RDF>
      <cc:Work
         rdf:about="">
        <dc:format>image/svg+xml</dc:format>
        <dc:type
           rdf:resource="http://purl.org/dc/dcmitype/StillImage" />
        <dc:title />
      </cc:Work>
    </rdf:RDF>
  </metadata>
  <g
     id="layer1"
     inkscape:label="Layer 1"
     inkscape:groupmode="layer">
    <g
       style="font-size:47.12873459px;font-style:normal;font-variant:normal;font-weight:normal;font-stretch:normal;line-height:125%;letter-spacing:0px;word-spacing:0px;fill:#000000;fill-opacity:1;stroke:none;font-family:Bravura;-inkscape-font-specification:Bravura"
       id="text3137">
      <path
         d="m 23.069219,0.32989703 c -0.115872,0.001972 -0.214055,0.0216084 -0.294552,0.0589102 -0.08052,0.0373179 -0.155143,0.0805186 -0.223857,0.12960236 C 22.327918,0.77074854 21.772199,1.326467 20.883651,2.1855667 19.995078,3.0446789 19.121246,3.5414875 18.26215,3.6759941 l 0,-0.4712813 C 18.24054,2.2876836 17.93028,1.5297065 17.331369,0.93077926 16.732441,0.33186705 15.974464,0.02160766 15.057437,1.3979638e-7 14.161015,0.02160953 13.408929,0.33186963 12.801178,0.93078137 12.193418,1.5297081 11.877267,2.2876845 11.852725,3.2047128 c 0.0079,0.4771767 0.133526,0.9248933 0.377025,1.343151 0.24349,0.4182655 0.557678,0.7717263 0.942562,1.0603836 0.190471,0.1423683 0.39862,0.2700068 0.624448,0.3829156 0.225817,0.1129138 0.45753,0.2052064 0.69514,0.2768781 0.32989,0.094258 0.706915,0.1413865 1.131075,0.1413844 0.33578,-0.00196 0.677458,-0.03338 1.025037,-0.094256 0.347561,-0.060872 0.665676,-0.1394186 0.954344,-0.2356407 0.32105,-0.091308 0.60971,-0.1914553 0.865979,-0.3004421 0.25625,-0.1089816 0.533127,-0.2444747 0.830634,-0.4064798 0.133518,-0.05498 0.243484,-0.086399 0.329897,-0.094256 0.149227,-0.00785 0.227774,0.1021144 0.23564,0.3298969 -1.1e-5,0.141387 -0.04714,0.3770274 -0.141384,0.7069219 -0.05383,0.1981149 -0.26038,0.8596535 -0.619648,1.9846175 -0.35929,1.1249643 -0.736897,2.2787292 -1.132821,3.4612982 -0.395943,1.182563 -0.675802,1.959304 -0.839578,2.330225 -0.21994,0.45262 -0.569473,0.808044 -1.048602,1.066273 -0.479143,0.258216 -0.899368,0.389782 -1.260676,0.394699 0.03927,-0.180664 0.05498,-0.337758 0.04713,-0.471281 -0.02455,-0.917041 -0.340704,-1.675018 -0.948455,-2.273934 -0.607762,-0.598924 -1.359847,-0.909183 -2.256258,-0.930779 -0.917038,0.0216 -1.6750147,0.331858 -2.2739335,0.930782 -0.5989207,0.598914 -0.9091801,1.356891 -0.9307791,2.273931 0.00786,0.477165 0.13353,0.924881 0.377025,1.343151 0.2434942,0.418254 0.5576814,0.771714 0.9425625,1.060384 0.3770231,0.290614 0.8011761,0.510545 1.2724591,0.659793 0.369168,0.09425 0.761902,0.141375 1.178204,0.141385 0.335783,-0.002 0.677462,-0.03339 1.025036,-0.09426 0.347566,-0.06088 0.66568,-0.13943 0.954345,-0.23564 0.315164,-0.08936 0.580259,-0.181649 0.795287,-0.276878 0.215016,-0.09525 0.468329,-0.222885 0.759941,-0.382916 0.04908,9.72e-4 0.09228,0.02257 0.129603,0.0648 0.0373,0.04221 0.05694,0.09916 0.05891,0.17084 -0.002,0.02355 -0.0098,0.04712 -0.02356,0.07069 -0.01375,0.02356 -0.02161,0.04712 -0.02356,0.07069 l -4.477173,13.33726 c -0.002,0.02354 -0.0098,0.04711 -0.02356,0.07069 -0.01375,0.02354 -0.0216,0.04711 -0.02356,0.07069 -0.0039,0.200271 0.109963,0.388784 0.341679,0.565537 0.23171,0.176707 0.604807,0.270963 1.119293,0.282769 0.66077,-0.01279 1.106523,-0.128644 1.33726,-0.34757 0.230725,-0.218973 0.381928,-0.464432 0.453609,-0.736377 l 5.466863,-17.955817 c 0.624435,-2.051058 1.131061,-3.7457049 1.519881,-5.0839468 0.388794,-1.3382409 0.589089,-2.0314163 0.600885,-2.0795283 0.01395,-0.047416 0.116933,-0.4133857 0.30895,-1.097911 0.191988,-0.6845178 0.389228,-1.4030759 0.59172,-2.1556764 0.202462,-0.7525888 0.326391,-1.2547061 0.371789,-1.5063535 0.0019,-0.0461394 0.0098,-0.0834495 0.02356,-0.11193041 0.01373,-0.0284659 0.02159,-0.0539932 0.02357,-0.0765822 C 23.526739,0.66471106 23.459974,0.53707262 23.340205,0.46539075 23.220406,0.39372483 23.130077,0.3485603 23.069219,0.32989703 z"
         style=""
         id="path3142" />
    </g>
  </g>
</svg>
