<?xml version="1.0" encoding="UTF-8" standalone="no"?>
<!-- Generated by IcoMoon.io -->

<svg
   xmlns:dc="http://purl.org/dc/elements/1.1/"
   xmlns:cc="http://creativecommons.org/ns#"
   xmlns:rdf="http://www.w3.org/1999/02/22-rdf-syntax-ns#"
   xmlns:svg="http://www.w3.org/2000/svg"
   xmlns="http://www.w3.org/2000/svg"
   xmlns:sodipodi="http://sodipodi.sourceforge.net/DTD/sodipodi-0.dtd"
   xmlns:inkscape="http://www.inkscape.org/namespaces/inkscape"
   version="1.1"
   width="32"
   height="32"
   viewBox="0 0 32 32"
   id="svg3094"
   inkscape:version="0.48.4 r9939"
   sodipodi:docname="whole-note.svg">
  <metadata
     id="metadata3102">
    <rdf:RDF>
      <cc:Work
         rdf:about="">
        <dc:format>image/svg+xml</dc:format>
        <dc:type
           rdf:resource="http://purl.org/dc/dcmitype/StillImage" />
      </cc:Work>
    </rdf:RDF>
  </metadata>
  <defs
     id="defs3100" />
  <sodipodi:namedview
     pagecolor="#ffffff"
     bordercolor="#666666"
     borderopacity="1"
     objecttolerance="10"
     gridtolerance="10"
     guidetolerance="10"
     inkscape:pageopacity="0"
     inkscape:pageshadow="2"
     inkscape:window-width="1680"
     inkscape:window-height="988"
     id="namedview3098"
     showgrid="false"
     inkscape:zoom="6.0769231"
     inkscape:cx="6.335443"
     inkscape:cy="16"
     inkscape:window-x="-8"
     inkscape:window-y="-8"
     inkscape:window-maximized="1"
     inkscape:current-layer="svg3094" />
  <path
     d="m 27.2,15.926 c 0,3.71 -2.78,6.734 -11.469,6.734 C 7.827,22.662 4.8,19.492 4.8,15.926 4.8,12.318 9.194,9.3399995 16.266,9.3399995 21.193,9.3399995 27.2,12.174 27.2,15.926 z m -14.837,2.732 c 0.341,0.442 0.734,0.834 1.126,1.176 0.73,0.635 1.61,1.123 2.489,1.414 0.976,0.291 2.002,0.243 3.024,0 1.318,-0.344 2.098,-1.267 2.343,-2.59 0.682,-3.363 -2.438,-8.099 -6.443,-8.099 -1.658,0 -3.609,0.291 -4.194,2.098 -0.636,2.003 0.386,4.445 1.655,6.002 z"
     id="path3096"
     inkscape:connector-curvature="0" />
</svg>
